<?xml version="1.0" standalone="no"?>
<!DOCTYPE svg PUBLIC "-//W3C//DTD SVG 20010904//EN"
 "http://www.w3.org/TR/2001/REC-SVG-20010904/DTD/svg10.dtd">
<svg version="1.0" xmlns="http://www.w3.org/2000/svg"
 width="275.000000pt" height="183.000000pt" viewBox="0 0 275.000000 183.000000"
 preserveAspectRatio="xMidYMid meet">

<g transform="translate(0.000000,183.000000) scale(0.100000,-0.100000)"
fill="#000000" stroke="none">
<path d="M0 1600 l0 -230 1375 0 1375 0 0 230 0 230 -1375 0 -1375 0 0 -230z"/>
<path d="M904 1205 c0 -13 4 -21 8 -19 3 2 8 -2 11 -8 3 -7 5 -4 4 8 -1 11 -6
25 -13 32 -9 8 -11 5 -10 -13z"/>
<path d="M1007 1169 c4 -13 8 -18 11 -10 2 7 -1 18 -6 23 -8 8 -9 4 -5 -13z"/>
<path d="M736 1161 c-8 -13 -3 -61 6 -61 4 0 8 -6 8 -14 0 -8 9 -17 19 -21 11
-3 26 -17 35 -30 16 -24 16 -24 -27 -27 l-42 -3 -3 -57 -3 -58 -58 0 c-74 0
-111 -23 -92 -58 14 -27 41 -29 41 -3 0 21 47 35 86 25 20 -5 24 -13 24 -43 0
-27 3 -32 10 -21 7 10 10 -14 10 -76 0 -68 4 -95 15 -104 12 -10 15 2 18 92
l3 103 2 -107 c2 -88 5 -108 17 -108 12 0 15 19 15 107 0 58 3 104 6 100 3 -3
6 -51 5 -106 -1 -85 1 -101 14 -101 12 0 15 15 15 86 0 57 3 83 11 79 6 -4 9
-37 8 -80 -1 -39 1 -77 5 -84 9 -14 63 -15 71 -1 3 6 17 7 31 4 33 -9 70 2 94
28 17 18 20 35 20 100 l0 78 -59 0 c-55 0 -59 2 -65 25 -4 14 -18 31 -31 37
-23 10 -25 17 -25 74 l0 62 53 9 c40 6 54 13 62 31 5 12 18 25 27 28 10 3 18
12 18 20 0 8 5 14 12 14 6 0 8 3 5 7 -4 3 -3 11 2 17 6 8 -4 12 -32 13 -23 1
-62 8 -85 14 -36 10 -45 10 -52 -1 -5 -8 -7 -17 -4 -21 5 -9 -25 -33 -33 -25
-3 3 -1 6 5 6 6 0 10 13 10 28 -1 27 -1 28 -44 18 -23 -6 -41 -13 -39 -16 2
-3 -17 -5 -42 -5 -37 -1 -43 2 -40 17 5 19 2 24 -7 9z m164 -112 c0 -14 -27
-10 -33 5 -4 10 0 12 14 9 10 -3 19 -9 19 -14z m124 -10 c-3 -5 -17 -9 -32 -9
-19 0 -23 3 -13 9 8 5 9 11 3 15 -6 3 -13 2 -17 -4 -8 -13 -35 -13 -35 -1 0 5
10 11 23 13 29 5 79 -11 71 -23z m-170 6 c4 -11 -1 -15 -19 -15 -26 0 -34 15
-12 23 20 9 25 8 31 -8z m216 -280 c-9 -10 -9 -15 -1 -15 6 0 11 -5 11 -11 0
-8 -4 -8 -14 1 -16 12 -11 40 6 40 6 0 5 -6 -2 -15z m-50 -9 c0 -3 -4 -8 -10
-11 -5 -3 -10 -1 -10 4 0 6 5 11 10 11 6 0 10 -2 10 -4z m14 -31 c-10 -8 -23
-15 -28 -15 -6 0 -1 7 10 15 10 8 23 15 28 15 6 0 1 -7 -10 -15z m-117 -35
c-4 -33 -1 -43 20 -65 19 -18 22 -25 10 -25 -8 0 -18 6 -21 13 -5 10 -7 10
-12 0 -3 -7 -13 -13 -21 -13 -13 0 -13 3 -2 16 7 9 12 35 10 65 -2 33 1 49 10
49 8 0 10 -12 6 -40z m163 -10 c0 -5 -5 -10 -11 -10 -5 0 -7 5 -4 10 3 6 8 10
11 10 2 0 4 -4 4 -10z m-10 -30 c0 -3 -10 -11 -22 -19 -21 -13 -22 -13 -9 2
11 14 11 20 0 34 -13 15 -12 15 9 2 12 -8 22 -16 22 -19z m-100 6 c0 -3 -4 -8
-10 -11 -5 -3 -10 -1 -10 4 0 6 5 11 10 11 6 0 10 -2 10 -4z"/>
<path d="M625 1046 c-11 -6 -22 -12 -24 -13 -2 -2 2 -9 9 -18 17 -20 56 -19
64 1 4 9 5 17 4 18 -2 1 -10 7 -18 13 -11 8 -20 8 -35 -1z"/>
<path d="M1171 1038 c-19 -7 -21 -11 -11 -23 23 -27 70 -14 70 20 0 8 -39 11
-59 3z"/>
<path d="M1020 980 c0 -5 5 -10 11 -10 5 0 7 5 4 10 -3 6 -8 10 -11 10 -2 0
-4 -4 -4 -10z"/>
<path d="M610 968 c0 -4 14 -8 30 -8 17 0 30 2 30 4 0 2 -13 6 -30 8 -16 3
-30 1 -30 -4z"/>
<path d="M1160 967 c0 -5 7 -6 16 -3 9 4 23 1 30 -5 11 -9 14 -8 14 3 0 9 -11
14 -30 14 -16 0 -30 -4 -30 -9z"/>
<path d="M980 966 c0 -2 7 -9 15 -16 12 -10 15 -10 15 4 0 9 -7 16 -15 16 -8
0 -15 -2 -15 -4z"/>
<path d="M1031 946 c-1 -14 -6 -17 -26 -12 -30 8 -34 -10 -4 -19 26 -8 43 6
36 31 -5 19 -5 19 -6 0z"/>
<path d="M956 898 c3 -4 11 -5 19 -1 21 7 19 12 -4 10 -11 0 -18 -5 -15 -9z"/>
<path d="M1056 893 c-6 -14 -5 -15 5 -6 7 7 10 15 7 18 -3 3 -9 -2 -12 -12z"/>
<path d="M1014 881 c3 -4 10 -21 16 -36 6 -15 13 -25 16 -22 6 6 -23 67 -32
67 -3 0 -3 -4 0 -9z"/>
<path d="M1100 870 c0 -14 7 -20 21 -20 11 0 18 4 15 9 -3 4 15 3 39 -2 33 -8
45 -15 45 -29 0 -21 11 -23 28 -6 37 37 -7 68 -93 68 -48 0 -55 -2 -55 -20z"/>
<path d="M975 861 c-3 -5 -1 -12 5 -16 5 -3 10 1 10 9 0 18 -6 21 -15 7z"/>
<path d="M670 817 c0 -7 -20 -23 -45 -35 -44 -21 -60 -52 -35 -67 6 -3 10 0
10 8 0 8 15 20 33 27 17 8 40 20 50 28 21 18 23 52 2 52 -8 0 -15 -6 -15 -13z"/>
<path d="M1137 810 c-4 -16 4 -26 37 -45 24 -14 48 -25 54 -25 7 0 9 -7 5 -17
-6 -16 -5 -16 10 -4 28 22 19 41 -29 62 -25 11 -48 27 -51 35 -7 20 -20 17
-26 -6z"/>
<path d="M596 623 c-3 -4 -6 -15 -6 -25 0 -15 8 -18 55 -18 30 0 55 4 55 9 0
5 -10 7 -22 5 -23 -5 -23 -5 0 6 13 5 21 14 18 19 -7 10 -91 13 -100 4z"/>
<path d="M1144 624 c-7 -3 -10 -14 -7 -24 4 -17 14 -20 59 -20 46 0 54 3 54
19 0 10 -7 22 -16 25 -18 7 -73 7 -90 0z m65 -23 c10 -7 7 -9 -12 -8 -14 1
-23 5 -20 10 6 9 15 9 32 -2z"/>
<path d="M0 230 l0 -230 1375 0 1375 0 0 230 0 230 -1375 0 -1375 0 0 -230z"/>
</g>
</svg>
